<svg width="2222" height="2500" viewBox="0 0 2222 2500" fill="none" xmlns="http://www.w3.org/2000/svg">
<path d="M2212.12 740.069C2212.11 698.447 2203.21 661.667 2185.2 630.11C2167.52 599.061 2141.04 573.045 2105.52 552.475C1812.31 383.409 1518.81 214.86 1225.7 45.6209C1146.68 -5.17009e-05 1070.06 1.67174 991.622 47.9476C874.916 116.767 290.607 451.53 116.491 552.38C44.7851 593.899 9.89293 657.428 9.8757 739.992C9.76367 1079.99 9.8757 1420 9.76367 1760C9.76367 1800.71 18.3036 1836.78 35.5127 1867.86C53.2044 1899.84 80.0565 1926.58 116.396 1947.61C290.521 2048.46 874.907 2383.2 991.588 2452.04C1070.06 2498.35 1146.68 2500 1225.72 2454.37C1518.85 2285.12 1812.36 2116.57 2105.61 1947.51C2141.95 1926.48 2168.8 1899.73 2186.5 1867.78C2203.68 1836.69 2212.24 1800.62 2212.24 1759.9C2212.24 1759.9 2212.24 1080.08 2212.12 740.069Z" fill="#5221E6"/>
<path d="M1114.37 1246.68L35.5127 1867.86C53.2044 1899.84 80.0564 1926.58 116.396 1947.61C290.521 2048.46 874.907 2383.2 991.588 2452.04C1070.06 2498.35 1146.68 2500 1225.72 2454.37C1518.85 2285.12 1812.36 2116.57 2105.61 1947.51C2141.95 1926.48 2168.8 1899.73 2186.5 1867.78L1114.37 1246.68Z" fill="#5221E6"/>
<path d="M2212.12 740.069C2212.11 698.447 2203.21 661.667 2185.2 630.11L1114.37 1246.69L2186.5 1867.78C2203.68 1836.69 2212.22 1800.62 2212.24 1759.9C2212.24 1759.9 2212.24 1080.08 2212.12 740.069" fill="#5221E6"/>
<path d="M1749.56 1014.47V1130.58H1865.68V1014.47H1923.73V1130.58H2039.84V1188.63H1923.73V1304.74H2039.84V1362.79H1923.73V1478.91H1865.68V1362.79H1749.56V1478.91H1691.51V1362.79H1575.4V1304.74H1691.51V1188.63H1575.4V1130.58H1691.51V1014.47H1749.56ZM1865.68 1188.63H1749.56V1304.74H1865.68V1188.63Z" fill="white"/>
<path d="M1116.74 431.339C1419.59 431.339 1684 595.813 1825.63 840.291L1824.25 837.938L1467.92 1043.1C1397.72 924.242 1269.03 844.022 1121.38 842.367L1116.73 842.342C891.599 842.342 709.081 1024.86 709.081 1249.99C709.007 1320.95 727.545 1390.69 762.845 1452.24C833.112 1574.91 965.209 1657.65 1116.74 1657.65C1269.21 1657.65 1402.06 1573.86 1471.96 1449.88L1470.26 1452.86L1826.05 1658.97C1685.98 1901.38 1425.18 2065.34 1125.86 2068.61L1116.74 2068.66C812.93 2068.66 547.77 1903.17 406.495 1657.4C337.529 1537.42 298.07 1398.32 298.07 1249.99C298.07 797.867 664.588 431.331 1116.73 431.331L1116.74 431.339Z" fill="white"/>
</svg>
