<svg width="24" height="24" viewBox="0 0 24 24" fill="none" xmlns="http://www.w3.org/2000/svg">
<g clip-path="url(#clip0)">
<path d="M22.3903 7.97655C21.3172 6.13797 19.8617 4.68235 18.0232 3.60939C16.1845 2.53637 14.1772 2 11.9999 2C9.82282 2 7.81486 2.53654 5.97655 3.60939C4.13797 4.6823 2.68246 6.13797 1.60939 7.97655C0.536482 9.81508 0 11.8228 0 13.9996C0 16.6144 0.762885 18.9657 2.28904 21.0541C3.81503 23.1427 5.78638 24.5879 8.20293 25.3899C8.48422 25.4421 8.69245 25.4054 8.82785 25.2807C8.96329 25.1558 9.03093 24.9994 9.03093 24.8121C9.03093 24.7809 9.02825 24.4997 9.02305 23.9684C9.01769 23.4371 9.01517 22.9735 9.01517 22.578L8.65579 22.6402C8.42665 22.6822 8.13758 22.7 7.78859 22.6949C7.43977 22.69 7.07764 22.6535 6.70271 22.5855C6.32762 22.5182 5.97874 22.3619 5.6558 22.1171C5.33302 21.8723 5.10388 21.5519 4.96844 21.1563L4.81219 20.7968C4.70805 20.5574 4.54409 20.2915 4.32009 20C4.0961 19.7083 3.86959 19.5105 3.64045 19.4064L3.53105 19.328C3.45816 19.276 3.39051 19.2132 3.32796 19.1404C3.26546 19.0675 3.21867 18.9947 3.18742 18.9216C3.15612 18.8486 3.18206 18.7887 3.26552 18.7417C3.34898 18.6946 3.4998 18.6718 3.71865 18.6718L4.03103 18.7185C4.23937 18.7603 4.49708 18.885 4.80448 19.0934C5.11171 19.3017 5.36427 19.5725 5.56222 19.9057C5.80192 20.3329 6.09071 20.6584 6.42941 20.8824C6.76784 21.1064 7.10906 21.2182 7.45274 21.2182C7.79642 21.2182 8.09325 21.1921 8.34335 21.1403C8.59318 21.0882 8.82757 21.0099 9.04642 20.9058C9.14017 20.2076 9.39541 19.6712 9.81193 19.2963C9.21826 19.2339 8.68452 19.1399 8.21042 19.015C7.7366 18.8899 7.24697 18.6869 6.74184 18.4054C6.23645 18.1242 5.81719 17.7751 5.48396 17.3587C5.15068 16.942 4.87715 16.3949 4.66378 15.718C4.45029 15.0408 4.34352 14.2597 4.34352 13.3743C4.34352 12.1137 4.75506 11.0409 5.57798 10.1555C5.19249 9.20773 5.22888 8.14527 5.68727 6.96822C5.98936 6.87436 6.43735 6.9448 7.03102 7.17908C7.6248 7.41347 8.05954 7.61426 8.33569 7.78074C8.61184 7.94716 8.8331 8.08819 8.99979 8.20257C9.96872 7.93184 10.9686 7.79645 11.9998 7.79645C13.0309 7.79645 14.0311 7.93184 15 8.20257L15.5938 7.82775C15.9998 7.57765 16.4792 7.34846 17.031 7.14011C17.5831 6.93188 18.0052 6.87453 18.297 6.96838C18.7656 8.14549 18.8074 9.20789 18.4217 10.1556C19.2446 11.0411 19.6563 12.1141 19.6563 13.3745C19.6563 14.2598 19.5492 15.0435 19.336 15.7258C19.1226 16.4083 18.8467 16.9548 18.5083 17.3665C18.1695 17.7781 17.7475 18.1244 17.2424 18.4055C16.7372 18.6868 16.2474 18.8899 15.7735 19.015C15.2995 19.1401 14.7658 19.2341 14.1721 19.2966C14.7136 19.7651 14.9843 20.5048 14.9843 21.5151V24.8117C14.9843 24.9989 15.0495 25.1553 15.1798 25.2802C15.31 25.405 15.5156 25.4417 15.7969 25.3894C18.2138 24.5875 20.1851 23.1423 21.7111 21.0537C23.2368 18.9653 24 16.6139 24 13.9991C23.9995 11.8226 23.4627 9.81508 22.3903 7.97655Z" fill="white"/>
</g>
<defs>
<clipPath id="clip0">
<rect width="24" height="24" fill="white"/>
</clipPath>
</defs>
</svg>
