<svg width="40" height="40" viewBox="0 0 40 40" fill="none" xmlns="http://www.w3.org/2000/svg">
<path d="M40 19.8182C40 22.4002 39.502 24.8666 38.5951 27.1291C38.1102 28.3392 37.5085 29.4911 36.8032 30.5702C35.9248 31.9162 34.8856 33.1498 33.7134 34.2434C33.0269 34.8849 32.2955 35.4778 31.5232 36.0182C28.2661 38.2976 24.2914 39.6364 20 39.6364C15.7086 39.6364 11.7339 38.2976 8.47672 36.0182C7.51016 35.3419 6.60734 34.584 5.77875 33.7524C2.2057 30.1729 0 25.25 0 19.8182C0 14.3864 2.2057 9.46341 5.77875 5.88399C6.65633 5.00394 7.61711 4.20548 8.64812 3.50015C11.8727 1.29259 15.7837 0 20 0C24.2163 0 28.1273 1.29259 31.3519 3.50015C32.1396 4.03811 32.8858 4.6318 33.5853 5.27489C34.8106 6.39763 35.893 7.67165 36.8033 9.0662C37.5086 10.1453 38.1102 11.2971 38.5952 12.5073C39.502 14.7698 40 17.2362 40 19.8182Z" fill="#5221E6"/>
<path d="M30.5509 18.0352C29.9943 16.4355 27.7118 16.4355 27.2666 17.7594C26.8213 19.0833 28.3243 19.8555 30.6623 20.6278C33.0004 21.4001 34.4478 23.4412 34.1695 25.2614C33.8911 27.0817 33.1117 29.4537 28.4913 29.4537C25.6036 29.4537 23.9987 27.6652 23.2012 26.3239L25.8192 24.765C25.8192 24.765 26.7099 26.6405 28.3799 26.6405C30.05 26.6405 30.718 26.0889 30.718 24.8202C30.718 23.2757 25.3181 22.7241 24.4831 20.0763C23.6481 17.4284 24.7615 13.6775 28.6582 13.9532C31.0938 14.1256 32.4637 15.3107 33.1487 16.1753L30.5509 18.0352Z" fill="black"/>
<path d="M18.4155 14.2291C18.4155 14.2291 18.4155 23.5515 18.4155 24.8202C18.4155 26.0889 17.3021 26.751 16.1887 26.5303C15.0754 26.3096 14.5744 24.9857 14.5744 24.9857L12.0137 26.6958C12.0137 26.6958 12.5703 29.2332 16.0774 29.4539C19.5845 29.6745 21.5885 27.5784 21.5885 25.8132C21.5885 24.0479 21.5885 14.2291 21.5885 14.2291H18.4155Z" fill="black"/>
<path d="M5.77881 3.50012V33.7523C6.6074 34.5839 7.51021 35.3418 8.47678 36.0181H31.5233C32.2956 35.4778 33.027 34.8848 33.7136 34.2434H7.56982V5.27486H36.8033V30.5701C37.5086 29.491 38.1102 28.3392 38.5951 27.129V3.50012H5.77881Z" fill="black"/>
</svg>
