<svg width="43" height="40" viewBox="0 0 43 40" fill="none" xmlns="http://www.w3.org/2000/svg">
<path d="M29.1944 27.9357C30.7493 27.7747 31.9289 26.4343 31.8752 24.8257C31.8217 23.2172 30.4812 21.9303 28.8727 21.9303H28.7655C27.1032 21.9839 25.8165 23.378 25.8701 25.0401C25.9238 25.8444 26.2454 26.5415 26.7279 27.024C24.905 30.6166 22.1169 33.2439 17.9348 35.4423C15.093 36.9436 12.1441 37.4799 9.19525 37.1046C6.78242 36.7828 4.90581 35.7106 3.72606 33.9409C2.01042 31.3136 1.84962 28.4717 3.29731 25.63C4.3161 23.5924 5.92444 22.0911 6.94322 21.3404C6.72877 20.6434 6.407 19.4638 6.2462 18.606C-1.52835 24.2359 -0.724016 31.8499 1.63516 35.4423C3.40446 38.1234 6.99688 39.7855 10.9646 39.7855C12.0368 39.7855 13.1091 39.6782 14.1816 39.4103C21.0446 38.0697 26.2455 33.9946 29.1944 27.9357V27.9357ZM38.6311 21.2869C34.5561 16.5147 28.5511 13.8874 21.688 13.8874H20.8302C20.3476 12.9223 19.3288 12.2788 18.2029 12.2788H18.0956C16.4336 12.3324 15.1468 13.7265 15.2003 15.3888C15.254 16.9973 16.5944 18.2842 18.2029 18.2842H18.31C19.4896 18.2305 20.5084 17.4799 20.9373 16.4611H21.9024C25.9774 16.4611 29.8378 17.6407 33.3231 19.9463C36.0038 21.7158 37.9341 24.0215 39.0064 26.8096C39.9179 29.0616 39.8642 31.26 38.8991 33.1368C37.3979 35.9785 34.8779 37.5335 31.5536 37.5335C29.4089 37.5335 27.3715 36.89 26.299 36.4074C25.7093 36.9436 24.6369 37.8015 23.8862 38.3378C26.1919 39.4101 28.5511 40 30.8029 40C35.9502 40 39.7571 37.1581 41.2048 34.3164C42.7596 31.2063 42.6523 25.8444 38.6311 21.2869V21.2869ZM11.3935 28.847C11.4471 30.4557 12.7875 31.7424 14.396 31.7424H14.5033C16.1655 31.6889 17.4522 30.2947 17.3986 28.6325C17.3451 27.0239 16.0045 25.7371 14.396 25.7371H14.2889C14.1816 25.7371 14.0206 25.7371 13.9136 25.7906C11.7152 22.1446 10.8038 18.1769 11.1255 13.8873C11.3398 10.6701 12.4123 7.88186 14.2889 5.57617C15.8437 3.59225 18.8462 2.62712 20.8838 2.57363C26.5671 2.46632 28.9798 9.54401 29.1408 12.3859C29.8378 12.5467 31.0174 12.9221 31.8217 13.1903C31.1782 4.50406 25.8165 0 20.6694 0C15.8437 0 11.3935 3.48527 9.624 8.6327C7.15768 15.4959 8.76618 22.0911 11.7687 27.2921C11.5008 27.6674 11.3398 28.2573 11.3935 28.8472V28.847Z" fill="#5221E6"/>
</svg>
